<svg xmlns="http://www.w3.org/2000/svg" viewBox="30 -1 102 106" role="img" aria-label="Hoja Lembas">
  <style>
    .leaf {
      fill: #2f8d72;
      stroke: #1f1a14;
      stroke-width: 1.25;
      stroke-linejoin: round;
      stroke-linecap: round;
      paint-order: stroke fill;
    }
  </style>
  <path class="leaf" d="m94.6 64.8c0-0.9 7.4-6.4 9.8-8.6 3.5-3.3 8.8-10.6 8.7-25.6l-1.5-29.7-25.4 13.6c-3.5 1.7-11.9 7.7-15.6 14.5-2.9 5.1-3.2 10.9-4.5 18.9-0.2 1.1-0.2 0.7-4.9-1.5-12.3-5.8-15-6.4-21.1-7l-8.6-0.9c0.7 1.9 1.7 3.7 2.6 6.1 1.3 4 3 9 3.5 13.8 0.3 2.5 1.8 7 2.5 8.4 3.9 7.5 8 11.1 15 11.8l9.2 0.8c0.8 0.1 1.1-0.3 1.3-0.6 2-3.4 1-4-0.2-6.6-1-1.6-2.8-1.7-4.3-1.8l-9-1.1c-1-0.2-2-0.9 0.5-1h8.1c2.9 0 2.4-0.4 1.4-1.7l-5.7-8c-1-1.2-2.5-1-4-1.2l-4.7-0.2c-2.3-0.2-1.8-0.8-0.6-1l6.1-0.8c-1.1-1.5-5.6-5-9.8-7.7-0.7-0.6-0.5-1.1 0.3-0.7 3.2 1.4 9.7 5.6 10.9 6.6h0.2l0.2-2.2c0.4-4.2 0.9-2.8 1.2-1l0.7 4.6c0.1 0.9 0.8 1.6 1.5 2.4l6.7 7.6 0.3 0.1 0.7-6.2c0.3-1.7 1-1.3 1 0l0.1 6.7c0 2.3 1.1 4.3 1.9 5.5 0.4 0.5 0.8 0.8 1.3 0l6.5-10.5c0.8-1.5 0.8-1.7 0.5-3.6l-2.2-10.8c-0.1-1.8 0.4-1.6 0.9 0l3 9.2c0 1 3.5-4.8 5.7-8.4 1.1-1.9 0.6-2.4 0.1-5.3l-1.5-7.3c-0.2-1.3 0.5-2 1-0.3l3 8.3c0.5 0.2 5.3-7.8 6.1-9.3 0.4-1-0.1-1.7-0.4-3.7l-2.2-10.5c-0.2-0.8 0.3-1.5 0.7 0l3.8 10.5 0.3 0.1 1.2-1.6c0.7-0.9 1.2-0.5 0.7 0.3l-1.1 1.9 0.1 0.1 10.3-1.8c2.8-0.7 2.8-0.5 2.2 0.2l-12.7 4c-1.8 0.6-2.3 1.4-3.5 3.5l-3.8 6.9c-0.5 0.7 0.3 0.6 1.3 0.4l7.5-1.5c2-0.3 2 0.5 1.5 0.7-0.8 0.4-8.5 2.8-10.8 3.8-1 0.3-1.6 1.2-2.2 2.3l-4.7 8.2c-0.3 0.8 0.4 0.5 1.7 0.3l8.2-1.8c2-0.4 2 0.5 1 0.7-2.2 0.9-9.9 3-11.7 3.9-1 0.4-1.5 1.6-1.8 2.1l-6 11c-0.2 0.8 0.1 1.2 1 1.2 4.3 0.3 5.6-0.2 9-2.1 5.5-3.1 6.3-3.6 5-1.8l-5.4 3.7-0.3 0.5 0.5 0.3 10.7 2.1c1.4 0.2 1.8-0.1 2.8-0.4l4.7-1.8c1.5-0.7 1.8 0 1 0.3l-4.2 2.8 4.8 2.2c2.9 1.4 7.4 3.6 6.7 4l-12.3-4.4-0.1 0.2 2.6 6c0.5 1.7-0.2 1.7-0.9 0.5l-4.1-6c-0.5-0.8-0.9-1-1.9-1.3-3.3-0.7-7.7-1.2-11.3-1.1-0.5 0-0.7 0.1-0.2 0.9l5.2 9.5c0.2 1-0.5 0.5-1.3-0.5l-6.5-8.5c-1-1.3-1.7-1.5-3-1.4-3.5 0.2-5 0.1-6.5 1.4-0.5 0.6-1.2 1.5-0.4 2.5 6.3 7.6 7.7 10 11.4 12.2 5.3 2.6 14.3 3.1 22.5-0.7 4.1-1.8 9-4 17.4-5-5.4-7.7-8.6-12-13.1-15.3-4.5-3.2-10.2-6.7-12.3-8v-0.3z"/>
</svg>
