<svg xmlns="http://www.w3.org/2000/svg" viewBox="0 0 200 200" role="img" aria-label="Producto sin imagen">
  <defs>
    <radialGradient id="bg" cx="50%" cy="40%" r="70%">
      <stop offset="0%" stop-color="#faf6ef"/>
      <stop offset="100%" stop-color="#f0e6d3"/>
    </radialGradient>
    <radialGradient id="leaf" cx="40%" cy="35%" r="65%">
      <stop offset="0%" stop-color="#3aaf85"/>
      <stop offset="100%" stop-color="#2f8d72"/>
    </radialGradient>
  </defs>

  <!-- Soft background -->
  <rect width="200" height="200" rx="24" fill="url(#bg)"/>

  <!-- Subtle grid dots -->
  <g opacity="0.06" fill="#075f36">
    <circle cx="40" cy="40" r="1.2"/>
    <circle cx="60" cy="40" r="1.2"/>
    <circle cx="80" cy="40" r="1.2"/>
    <circle cx="100" cy="40" r="1.2"/>
    <circle cx="120" cy="40" r="1.2"/>
    <circle cx="140" cy="40" r="1.2"/>
    <circle cx="160" cy="40" r="1.2"/>
    <circle cx="40" cy="60" r="1.2"/>
    <circle cx="60" cy="60" r="1.2"/>
    <circle cx="80" cy="60" r="1.2"/>
    <circle cx="100" cy="60" r="1.2"/>
    <circle cx="120" cy="60" r="1.2"/>
    <circle cx="140" cy="60" r="1.2"/>
    <circle cx="160" cy="60" r="1.2"/>
    <circle cx="40" cy="80" r="1.2"/>
    <circle cx="60" cy="80" r="1.2"/>
    <circle cx="80" cy="80" r="1.2"/>
    <circle cx="100" cy="80" r="1.2"/>
    <circle cx="120" cy="80" r="1.2"/>
    <circle cx="140" cy="80" r="1.2"/>
    <circle cx="160" cy="80" r="1.2"/>
    <circle cx="40" cy="100" r="1.2"/>
    <circle cx="60" cy="100" r="1.2"/>
    <circle cx="80" cy="100" r="1.2"/>
    <circle cx="100" cy="100" r="1.2"/>
    <circle cx="120" cy="100" r="1.2"/>
    <circle cx="140" cy="100" r="1.2"/>
    <circle cx="160" cy="100" r="1.2"/>
    <circle cx="40" cy="120" r="1.2"/>
    <circle cx="60" cy="120" r="1.2"/>
    <circle cx="80" cy="120" r="1.2"/>
    <circle cx="100" cy="120" r="1.2"/>
    <circle cx="120" cy="120" r="1.2"/>
    <circle cx="140" cy="120" r="1.2"/>
    <circle cx="160" cy="120" r="1.2"/>
    <circle cx="40" cy="140" r="1.2"/>
    <circle cx="60" cy="140" r="1.2"/>
    <circle cx="80" cy="140" r="1.2"/>
    <circle cx="100" cy="140" r="1.2"/>
    <circle cx="120" cy="140" r="1.2"/>
    <circle cx="140" cy="140" r="1.2"/>
    <circle cx="160" cy="140" r="1.2"/>
    <circle cx="40" cy="160" r="1.2"/>
    <circle cx="60" cy="160" r="1.2"/>
    <circle cx="80" cy="160" r="1.2"/>
    <circle cx="100" cy="160" r="1.2"/>
    <circle cx="120" cy="160" r="1.2"/>
    <circle cx="140" cy="160" r="1.2"/>
    <circle cx="160" cy="160" r="1.2"/>
  </g>

  <!-- Leaf -->
  <g transform="translate(62, 48) scale(0.76)">
    <path d="M51 24c12 3 20 14 18 27-3 15-17 25-32 20-7-2-11-8-10-15 1-8 8-14 16-14h9c-5-5-6-12-1-18Z" fill="url(#leaf)"/>
    <path d="M30 67c13-16 24-25 39-35" fill="none" stroke="#075f36" stroke-width="4.5" stroke-linecap="round" opacity=".55"/>
  </g>

  <!-- Subtle bottom label -->
  <text x="100" y="178" text-anchor="middle" fill="#9a5b19" font-family="system-ui, sans-serif" font-size="11" font-weight="600" letter-spacing="0.08em" opacity="0.7">SIN IMAGEN</text>
</svg>
